# xmcd
#
# Track frame offsets:
#	150
#	16485
#	33759
#	49942
#	60440
#	74063
#	89700
#	102564
#	114137
#	130373
#	142868
#	158783
#	172009
#	186336
#	199242
#	212754
#	225897
#	238552
#	249676
#	265915
#	280618
#	291523
#	309347
#	321194
#
# Disc length: 4524 seconds
#
# Revision: 1
# Processed by: cddbd v1.5.2PL0 Copyright (c) Steve Scherf et al.
# Submitted via: audiograbber 1.83.01
#
DISCID=6311aa18
DTITLE=Jazz Legends - Хиты планеты
DYEAR=2006
DGENRE=Jazz
TTITLE0=Louis Armstrong - Go Down Moses
TTITLE1=Dinah Washington - You've Been
TTITLE2=Glenn Miller - In The Mood
TTITLE3=Menken Ashman - Friend Like Me
TTITLE4=Marilyn Monroe - I Wanna be Loved by You
TTITLE5=Frank Sinatra - New York, New York
TTITLE6=Shirley Horn - This Can't be Love
TTITLE7=Ray Charles - Baby Don't You Cry
TTITLE8=Nina Simone - My Baby Just Cares For Me
TTITLE9=Squirell Nut Zippers - Fat Cat Keeps Getting Fatter
TTITLE10=Gary Mulligan - The Shadow of Your Smile
TTITLE11=Peggy Lee - They Can't Tale That Away From Me
TTITLE12=Vikki Carr - Can't Take My Eyes off You
TTITLE13=Connie Francis - I Will Wait For You
TTITLE14=Ella Fitzgerald - Isn't It Romantic?
TTITLE15=Duke Ellington - Take the Train
TTITLE16=Shirley Bassey - Goldfinger
TTITLE17=Nat'King'Cole - Fascination
TTITLE18=Bing Crosby - Mountain Greenery
TTITLE19=Glenn Miller - Moonlight Serenade
TTITLE20=Loius Armstrong - Hello Dolly
TTITLE21=Sarah Vaughan - Smoke Gets in Your Eyes
TTITLE22=FrankSinatra and Antonio Carlos Jobin - I Concentrate on You
TTITLE23=Ben Webster - Solitude
EXTD=YEAR: 2006
EXTT0=
EXTT1=
EXTT2=
EXTT3=
EXTT4=
EXTT5=
EXTT6=
EXTT7=
EXTT8=
EXTT9=
EXTT10=
EXTT11=
EXTT12=
EXTT13=
EXTT14=
EXTT15=
EXTT16=
EXTT17=
EXTT18=
EXTT19=
EXTT20=
EXTT21=
EXTT22=
EXTT23=
PLAYORDER=
